<?xml version="1.0" encoding="utf-8"?>
<!-- Generator: Adobe Illustrator 26.5.0, SVG Export Plug-In . SVG Version: 6.00 Build 0)  -->
<svg version="1.1" id="Calque_1" xmlns="http://www.w3.org/2000/svg" xmlns:xlink="http://www.w3.org/1999/xlink" x="0px" y="0px"
	 viewBox="0 0 500 500" style="enable-background:new 0 0 500 500;" xml:space="preserve">
<style type="text/css">
	.st0{fill:url(#SVGID_1_);}
	.st1{fill:url(#SVGID_00000031167404635980064920000014312728217588625045_);}
	.st2{fill:url(#SVGID_00000167388254536974640890000012312334682971807884_);}
	.st3{fill:url(#SVGID_00000111910565876569623640000003427788308106171816_);}
</style>
<linearGradient id="SVGID_1_" gradientUnits="userSpaceOnUse" x1="38.1836" y1="250" x2="461.8164" y2="250">
	<stop  offset="0.3536" style="stop-color:#502777"/>
	<stop  offset="0.3568" style="stop-color:#512777"/>
	<stop  offset="0.528" style="stop-color:#82247B"/>
	<stop  offset="0.6839" style="stop-color:#A5207E"/>
	<stop  offset="0.8195" style="stop-color:#BE1C81"/>
	<stop  offset="0.9295" style="stop-color:#CC1A82"/>
	<stop  offset="1" style="stop-color:#D11983"/>
</linearGradient>
<path class="st0" d="M447.4,397L183.9,133.5c2-6.7,3-13.7,3-21c0-41.1-33.3-74.3-74.3-74.3c-6.6,0-13,0.9-19.1,2.5l41.7,41.7
	l-11.2,39.6l-39.1,10.8l-43-43c-2.3,7.2-3.6,14.9-3.6,22.8c0,41.1,33.3,74.3,74.3,74.3c7.3,0,14.3-1,21-3L397,447.4
	c6.5,8.8,17,14.4,28.8,14.4c19.9,0,36-16.1,36-36C461.8,414.1,456.1,403.6,447.4,397z M424.8,447.5c-12.4,0-22.4-10-22.4-22.4
	c0-12.4,10-22.4,22.4-22.4c12.4,0,22.4,10,22.4,22.4C447.2,437.5,437.2,447.5,424.8,447.5z"/>
<linearGradient id="SVGID_00000120525481494955491040000008612583482974911385_" gradientUnits="userSpaceOnUse" x1="283.5669" y1="117.5585" x2="363.3468" y2="117.5585">
	<stop  offset="0.3536" style="stop-color:#502777"/>
	<stop  offset="0.3568" style="stop-color:#512777"/>
	<stop  offset="0.528" style="stop-color:#82247B"/>
	<stop  offset="0.6839" style="stop-color:#A5207E"/>
	<stop  offset="0.8195" style="stop-color:#BE1C81"/>
	<stop  offset="0.9295" style="stop-color:#CC1A82"/>
	<stop  offset="1" style="stop-color:#D11983"/>
</linearGradient>
<path style="fill:url(#SVGID_00000120525481494955491040000008612583482974911385_);" d="M334.1,77.7l-39.9,10.7l-10.7,39.9
	l29.2,29.2l39.9-10.7l10.7-39.9L334.1,77.7z M323.5,140.1c-12.4,0-22.5-10.1-22.5-22.5c0-12.4,10.1-22.5,22.5-22.5
	c12.4,0,22.5,10.1,22.5,22.5C346,130,335.9,140.1,323.5,140.1z"/>
<linearGradient id="SVGID_00000086675704228663405320000010201261506457177737_" gradientUnits="userSpaceOnUse" x1="339.9861" y1="176.7082" x2="419.766" y2="176.7082" gradientTransform="matrix(0.7071 0.7071 -0.7071 0.7071 228.57 -212.1694)">
	<stop  offset="0.3536" style="stop-color:#502777"/>
	<stop  offset="0.3568" style="stop-color:#512777"/>
	<stop  offset="0.528" style="stop-color:#82247B"/>
	<stop  offset="0.6839" style="stop-color:#A5207E"/>
	<stop  offset="0.8195" style="stop-color:#BE1C81"/>
	<stop  offset="0.9295" style="stop-color:#CC1A82"/>
	<stop  offset="1" style="stop-color:#D11983"/>
</linearGradient>
<path style="fill:url(#SVGID_00000086675704228663405320000010201261506457177737_);" d="M408,160.7l-35.8-20.6l-35.8,20.6V202
	l35.8,20.6L408,202V160.7z M356.3,197.3c-8.8-8.8-8.8-23.1,0-31.9c8.8-8.8,23.1-8.8,31.9,0c8.8,8.8,8.8,23.1,0,31.9
	C379.4,206.1,365.1,206.1,356.3,197.3z"/>
<linearGradient id="SVGID_00000030451117235541210980000013117501532308819105_" gradientUnits="userSpaceOnUse" x1="332.8533" y1="98.0621" x2="412.6332" y2="98.0621" gradientTransform="matrix(0.913 0.4081 -0.4081 0.913 107.7113 -138.2107)">
	<stop  offset="0.3536" style="stop-color:#502777"/>
	<stop  offset="0.3568" style="stop-color:#512777"/>
	<stop  offset="0.528" style="stop-color:#82247B"/>
	<stop  offset="0.6839" style="stop-color:#A5207E"/>
	<stop  offset="0.8195" style="stop-color:#BE1C81"/>
	<stop  offset="0.9295" style="stop-color:#CC1A82"/>
	<stop  offset="1" style="stop-color:#D11983"/>
</linearGradient>
<path style="fill:url(#SVGID_00000030451117235541210980000013117501532308819105_);" d="M434,71.4l-40.8-6.5l-26,32.1l14.7,38.6
	l40.8,6.5l26-32.1L434,71.4z M398.8,124c-11.4-5.1-16.5-18.4-11.4-29.8c5.1-11.4,18.4-16.5,29.8-11.4c11.4,5.1,16.5,18.4,11.4,29.8
	C423.5,124,410.2,129.1,398.8,124z"/>
</svg>
