<?xml version="1.0" encoding="utf-8"?>
<!-- Generator: Adobe Illustrator 26.2.1, SVG Export Plug-In . SVG Version: 6.00 Build 0)  -->
<svg version="1.1" id="Calque_1" xmlns="http://www.w3.org/2000/svg" xmlns:xlink="http://www.w3.org/1999/xlink" x="0px" y="0px"
	 viewBox="0 0 500 500" style="enable-background:new 0 0 500 500;" xml:space="preserve">
<style type="text/css">
	.st0{fill:url(#SVGID_1_);}
	.st1{fill:url(#SVGID_00000167356594295558084760000003363127603023582856_);}
	.st2{fill:url(#SVGID_00000081632541855034463260000015757169597203883913_);}
	.st3{fill:url(#SVGID_00000061438801755311718730000017729008475503003534_);}
	.st4{fill:url(#SVGID_00000085247957762427394470000007747031850373139352_);}
	.st5{fill:url(#SVGID_00000088114960088300463000000015517146278454798472_);}
	.st6{fill:url(#SVGID_00000069369172204239507560000018383255145119946640_);}
</style>
<linearGradient id="SVGID_1_" gradientUnits="userSpaceOnUse" x1="250" y1="8.3409" x2="250" y2="491.6591">
	<stop  offset="4.475343e-07" style="stop-color:#B61772"/>
	<stop  offset="0.2348" style="stop-color:#8C1E69"/>
	<stop  offset="0.4859" style="stop-color:#652261"/>
	<stop  offset="0.7064" style="stop-color:#4A225C"/>
	<stop  offset="0.8853" style="stop-color:#3A2358"/>
	<stop  offset="1" style="stop-color:#342356"/>
</linearGradient>
<path class="st0" d="M8.3,168.7c7.6-2.7,15.5-5.3,23.8-7.8c23.9-58.4,70.6-105,129.1-128.8c2.5-8.3,5.1-16.2,7.9-23.8
	C93.5,33.6,33.8,93.3,8.3,168.7z M330.9,8.3c2.8,7.5,5.4,15.5,7.9,23.8c58.4,23.8,105.1,70.4,129.1,128.8c8.3,2.5,16.2,5.1,23.8,7.8
	C466.2,93.3,406.5,33.6,330.9,8.3z M467.9,339.5c-23.8,58-70.1,104.5-128.1,128.4c-2.4,8.3-5,16.2-7.7,23.8
	c75-25.5,134.3-84.9,159.6-160C484.1,334.4,476.2,337,467.9,339.5z M32.1,339.5c-8.3-2.5-16.2-5.1-23.8-7.8
	C33.6,406.7,93,466.2,168,491.7c-2.7-7.6-5.3-15.5-7.7-23.8C102.3,443.9,55.9,397.5,32.1,339.5z"/>
<linearGradient id="SVGID_00000050648613987286485760000000042784883396842630_" gradientUnits="userSpaceOnUse" x1="148.9004" y1="165.8963" x2="353.5674" y2="370.5632" gradientTransform="matrix(0.7071 0.7071 -0.7071 0.7071 165.5369 -81.1309)">
	<stop  offset="4.475343e-07" style="stop-color:#B61772"/>
	<stop  offset="0.2348" style="stop-color:#8C1E69"/>
	<stop  offset="0.4859" style="stop-color:#652261"/>
	<stop  offset="0.7064" style="stop-color:#4A225C"/>
	<stop  offset="0.8853" style="stop-color:#3A2358"/>
	<stop  offset="1" style="stop-color:#342356"/>
</linearGradient>
<polygon style="fill:url(#SVGID_00000050648613987286485760000000042784883396842630_);" points="153.5,430.9 57,219.4 153.5,141.5 
	250,219.4 "/>
<linearGradient id="SVGID_00000147918930603623490600000015936074297431603642_" gradientUnits="userSpaceOnUse" x1="274.7733" y1="24.5797" x2="189.4954" y2="-60.6982" gradientTransform="matrix(-0.7071 -0.7071 0.7071 -0.7071 330.4327 281.1304)">
	<stop  offset="4.475343e-07" style="stop-color:#B61772"/>
	<stop  offset="0.2348" style="stop-color:#8C1E69"/>
	<stop  offset="0.4859" style="stop-color:#652261"/>
	<stop  offset="0.7064" style="stop-color:#4A225C"/>
	<stop  offset="0.8853" style="stop-color:#3A2358"/>
	<stop  offset="1" style="stop-color:#342356"/>
</linearGradient>
<path style="fill:url(#SVGID_00000147918930603623490600000015936074297431603642_);" d="M196.2,87.1L196.2,87.1
	c23.5,23.5,23.5,61.7,0,85.3l0,0c-23.5,23.5-61.7,23.5-85.3,0l0,0c-23.5-23.5-23.5-61.7,0-85.3l0,0
	C134.4,63.6,172.6,63.6,196.2,87.1z"/>
<linearGradient id="SVGID_00000163766186507316487600000004606795133126293144_" gradientUnits="userSpaceOnUse" x1="285.3451" y1="29.4516" x2="490.012" y2="234.1186" gradientTransform="matrix(0.7071 0.7071 -0.7071 0.7071 165.5369 -81.1309)">
	<stop  offset="4.475343e-07" style="stop-color:#B61772"/>
	<stop  offset="0.2348" style="stop-color:#8C1E69"/>
	<stop  offset="0.4859" style="stop-color:#652261"/>
	<stop  offset="0.7064" style="stop-color:#4A225C"/>
	<stop  offset="0.8853" style="stop-color:#3A2358"/>
	<stop  offset="1" style="stop-color:#342356"/>
</linearGradient>
<polygon style="fill:url(#SVGID_00000163766186507316487600000004606795133126293144_);" points="346.5,430.9 250,219.4 
	346.5,141.5 443,219.4 "/>
<linearGradient id="SVGID_00000088103119898882998460000006544621712190631835_" gradientUnits="userSpaceOnUse" x1="138.3286" y1="161.0243" x2="53.0507" y2="75.7464" gradientTransform="matrix(-0.7071 -0.7071 0.7071 -0.7071 330.4327 281.1304)">
	<stop  offset="4.475343e-07" style="stop-color:#B61772"/>
	<stop  offset="0.2348" style="stop-color:#8C1E69"/>
	<stop  offset="0.4859" style="stop-color:#652261"/>
	<stop  offset="0.7064" style="stop-color:#4A225C"/>
	<stop  offset="0.8853" style="stop-color:#3A2358"/>
	<stop  offset="1" style="stop-color:#342356"/>
</linearGradient>
<path style="fill:url(#SVGID_00000088103119898882998460000006544621712190631835_);" d="M389.1,87.1L389.1,87.1
	c23.5,23.5,23.5,61.7,0,85.3l0,0c-23.5,23.5-61.7,23.5-85.3,0l0,0c-23.5-23.5-23.5-61.7,0-85.3l0,0
	C327.4,63.6,365.6,63.6,389.1,87.1z"/>
<linearGradient id="SVGID_00000170237624147224007390000018299520851853250485_" gradientUnits="userSpaceOnUse" x1="248.8961" y1="129.4473" x2="453.5631" y2="334.1143" gradientTransform="matrix(0.7071 0.7071 -0.7071 0.7071 165.5369 -81.1309)">
	<stop  offset="4.475343e-07" style="stop-color:#D11983"/>
	<stop  offset="4.685856e-02" style="stop-color:#C91A82"/>
	<stop  offset="0.3005" style="stop-color:#9F217E"/>
	<stop  offset="0.5316" style="stop-color:#7A257A"/>
	<stop  offset="0.7325" style="stop-color:#5F2678"/>
	<stop  offset="0.8955" style="stop-color:#4E2776"/>
	<stop  offset="1" style="stop-color:#472776"/>
</linearGradient>
<polygon style="fill:url(#SVGID_00000170237624147224007390000018299520851853250485_);" points="250,475.8 153.5,264.3 250,186.4 
	346.5,264.3 "/>
<linearGradient id="SVGID_00000052786040048778741350000006371650740237818295_" gradientUnits="userSpaceOnUse" x1="174.7776" y1="61.0286" x2="89.4997" y2="-24.2493" gradientTransform="matrix(-0.7071 -0.7071 0.7071 -0.7071 330.4327 281.1304)">
	<stop  offset="4.475343e-07" style="stop-color:#D11983"/>
	<stop  offset="4.685856e-02" style="stop-color:#C91A82"/>
	<stop  offset="0.3005" style="stop-color:#9F217E"/>
	<stop  offset="0.5316" style="stop-color:#7A257A"/>
	<stop  offset="0.7325" style="stop-color:#5F2678"/>
	<stop  offset="0.8955" style="stop-color:#4E2776"/>
	<stop  offset="1" style="stop-color:#472776"/>
</linearGradient>
<path style="fill:url(#SVGID_00000052786040048778741350000006371650740237818295_);" d="M292.6,132.1L292.6,132.1
	c23.5,23.5,23.5,61.7,0,85.3l0,0c-23.5,23.5-61.7,23.5-85.3,0l0,0c-23.5-23.5-23.5-61.7,0-85.3l0,0
	C230.9,108.5,269.1,108.5,292.6,132.1z"/>
</svg>
