<?xml version="1.0" encoding="utf-8"?>
<!-- Generator: Adobe Illustrator 26.2.1, SVG Export Plug-In . SVG Version: 6.00 Build 0)  -->
<svg version="1.1" id="Calque_1" xmlns="http://www.w3.org/2000/svg" xmlns:xlink="http://www.w3.org/1999/xlink" x="0px" y="0px"
	 viewBox="0 0 500 500" style="enable-background:new 0 0 500 500;" xml:space="preserve">
<style type="text/css">
	.st0{fill:url(#SVGID_1_);}
	.st1{fill:url(#SVGID_00000005227779265332671330000001211378568575803027_);}
	.st2{fill:none;}
	.st3{fill:url(#SVGID_00000138554140748744084840000004194815737880034697_);}
</style>
<polygon points="294.2,250 286.3,257.9 277.8,266.5 266.5,277.7 257.9,286.3 257,287.2 250,294.2 242.9,287.2 242,286.3 
	222.2,266.5 213.7,257.9 212.8,257.1 205.7,250 222.3,233.5 233.5,222.2 242,213.7 242.9,212.8 250,205.8 257,212.8 257.9,213.7 
	266.5,222.2 286.3,242 287.2,243 "/>
<polygon points="294.2,250 286.3,257.9 277.8,266.5 266.5,277.7 257.9,286.3 257,287.2 250,294.2 242.9,287.2 242,286.3 
	222.2,266.5 213.7,257.9 212.8,257.1 205.7,250 222.3,233.5 233.5,222.2 242,213.7 242.9,212.8 250,205.8 257,212.8 257.9,213.7 
	266.5,222.2 286.3,242 287.2,243 "/>
<polygon points="317.8,234.8 317.8,234.8 297.1,214.1 "/>
<polygon points="287.2,243 287.2,257 286.3,257.9 277.8,266.5 266.5,277.7 257.9,286.3 257,287.2 250,294.2 242.9,287.2 242,286.3 
	222.2,266.5 213.7,257.9 212.8,257.1 212.8,242.9 222.3,233.5 233.5,222.2 242,213.7 242.9,212.8 250,205.8 257,212.8 257.9,213.7 
	266.5,222.2 286.3,242 "/>
<polygon points="294.2,250 286.3,257.9 277.8,266.5 266.5,277.7 257.9,286.3 257,287.2 242.9,287.2 242,286.3 222.2,266.5 
	213.7,257.9 212.8,257.1 205.7,250 222.3,233.5 233.5,222.2 242,213.7 242.9,212.8 257,212.8 257.9,213.7 266.5,222.2 286.3,242 
	287.2,243 "/>
<linearGradient id="SVGID_1_" gradientUnits="userSpaceOnUse" x1="272.11" y1="272.13" x2="227.855" y2="227.875">
	<stop  offset="4.475343e-07" style="stop-color:#D11983"/>
	<stop  offset="4.685856e-02" style="stop-color:#C91A82"/>
	<stop  offset="0.3005" style="stop-color:#9F217E"/>
	<stop  offset="0.5316" style="stop-color:#7A257A"/>
	<stop  offset="0.7325" style="stop-color:#5F2678"/>
	<stop  offset="0.8955" style="stop-color:#4E2776"/>
	<stop  offset="1" style="stop-color:#472776"/>
</linearGradient>
<polygon class="st0" points="294.2,250 286.3,257.9 277.8,266.5 266.5,277.7 257.9,286.3 257,287.2 250,294.2 242.9,287.2 
	242,286.3 222.2,266.5 213.7,257.9 212.8,257.1 205.7,250 222.3,233.5 233.5,222.2 242,213.7 242.9,212.8 250,205.8 257,212.8 
	257.9,213.7 266.5,222.2 286.3,242 287.2,243 "/>
<linearGradient id="SVGID_00000068659470297374980580000015790405179541829017_" gradientUnits="userSpaceOnUse" x1="11.17" y1="250" x2="488.83" y2="250">
	<stop  offset="4.475343e-07" style="stop-color:#D11983"/>
	<stop  offset="4.685856e-02" style="stop-color:#C91A82"/>
	<stop  offset="0.3005" style="stop-color:#9F217E"/>
	<stop  offset="0.5316" style="stop-color:#7A257A"/>
	<stop  offset="0.7325" style="stop-color:#5F2678"/>
	<stop  offset="0.8955" style="stop-color:#4E2776"/>
	<stop  offset="1" style="stop-color:#472776"/>
</linearGradient>
<path style="fill:url(#SVGID_00000068659470297374980580000015790405179541829017_);" d="M477.8,212.8h-52.1
	c-4.6-22-13.3-42.5-25.2-60.7l36.9-36.9c4.3-4.3,4.3-11.3,0-15.6l-37-37c-4.3-4.3-11.3-4.3-15.6,0l-36.9,36.9
	c-18.2-11.9-38.7-20.5-60.7-25.2V22.2c0-6.1-4.9-11-11-11h-52.3c-6.1,0-11,4.9-11,11v52.1c-22,4.6-42.5,13.3-60.8,25.2l-36.9-36.9
	c-4.3-4.3-11.3-4.3-15.6,0l-37,37c-4.3,4.3-4.3,11.3,0,15.6l36.9,36.8c-11.9,18.2-20.5,38.7-25.2,60.7H22.2c-6.1,0-11,4.9-11,11
	v52.3c0,6.1,4.9,11,11,11h52.1c4.6,22,13.3,42.5,25.2,60.7l-36.9,36.8c-4.3,4.3-4.3,11.3,0,15.6l37,37c4.3,4.3,11.3,4.3,15.6,0
	l36.8-36.8c18.2,11.9,38.8,20.6,60.8,25.2v52.1c0,6.1,4.9,11,11,11h52.3c6.1,0,11-4.9,11-11v-52.1c22-4.6,42.5-13.3,60.7-25.2
	l36.9,36.9c4.3,4.3,11.3,4.3,15.6,0l37-37c4.3-4.3,4.3-11.3,0-15.6l-36.9-36.8c11.9-18.2,20.5-38.7,25.2-60.7h52.1
	c6.1,0,11-4.9,11-11v-52.3C488.8,217.7,483.9,212.8,477.8,212.8z M460.6,257.9H325.1l-27.9,27.9l107.4,107.4l-11.2,11.2L285.9,297.1
	l-20.7,20.7l-7.3,7.3v135.5H242V325l-7.2-7.2l-20.7-20.7L106.7,404.5l-11.2-11.2l107.4-107.4l-20.7-20.7l-7.2-7.2H39.4V242H175
	l7.2-7.2l20.7-20.7L95.5,106.7l11.2-11.2l107.4,107.4L242,175V39.4h15.9v135.5l7.2,7.2l20.7,20.7h0L393.2,95.5l11.2,11.2
	L297.1,214.1l20.7,20.7l7.2,7.2h135.5V257.9z"/>
<polygon class="st2" points="257.9,213.7 257.9,286.3 257,287.2 250,294.2 242.9,287.2 242,286.3 242,213.7 242.9,212.8 250,205.8 
	257,212.8 "/>
<polyline class="st2" points="286.3,242 269.1,242 257.9,242 253.3,242 246.6,242 242,242 230.8,242 213.7,242 "/>
<polyline class="st2" points="286.3,257.9 269.2,257.9 257.9,257.9 253.2,257.9 246.7,257.9 242,257.9 230.8,257.9 213.7,257.9 "/>
<polygon class="st2" points="277.8,266.5 266.5,277.7 257.9,269.1 246.7,257.9 242,253.2 238.7,250 230.8,242 222.3,233.5 
	233.5,222.2 242,230.8 250,238.7 253.3,242 257.9,246.6 261.2,250 269.2,257.9 "/>
<path class="st2" d="M257.9,269.1l-11.2-11.2H242v-4.7l-3.3-3.3l3.3-3.3V242h4.6l11.3-11.3l8.5-8.5l-8.5-8.5l-0.9-0.9l-7.1-7l-7,7
	l-0.9,0.9l-8.5,8.5l-11.2,11.2L205.7,250l7.1,7.1l0.8,0.8l8.6,8.5l19.8,19.8l0.9,0.9l7,7l7.1-7l0.9-0.9l8.6-8.6L257.9,269.1z
	 M287.2,243l-1-1l-19.8-19.8l-8.5-8.5l-0.9-0.9l-7.1-7l-7,7l-0.9,0.9l-8.5,8.5l-11.2,11.2L205.7,250l7.1,7.1l0.8,0.8l8.6,8.5
	l19.8,19.8l0.9,0.9l7,7l7.1-7l0.9-0.9l8.6-8.6l11.2-11.2l8.5-8.5l7.9-7.9L287.2,243z"/>
<path class="st2" d="M460.6,257.9V242H325l-7.2-7.2l-20.7-20.7l107.4-107.4l-11.2-11.2L285.8,202.8h0l-20.7-20.7l-7.2-7.2V39.4H242
	V175l-27.9,27.9L106.8,95.5l-11.2,11.2l107.4,107.4l-20.7,20.7L175,242H39.4v15.9h135.5l7.2,7.2l20.7,20.7L95.4,393.3l11.2,11.2
	l107.4-107.4l20.7,20.7l7.2,7.2v135.5h15.9V325.1l7.3-7.3l20.7-20.7l107.4,107.4l11.2-11.2L297.1,285.9l27.9-27.9H460.6z
	 M286.3,257.9l-8.5,8.5l-11.2,11.2l-8.6,8.6l-0.9,0.9l-7.1,7l-7-7l-0.9-0.9l-19.8-19.8l-8.6-8.5l-0.8-0.8l-7.1-7.1l16.5-16.5
	l11.2-11.2l8.5-8.5l0.9-0.9l7-7l7.1,7l0.9,0.9l8.5,8.5l19.8,19.8l1,1l7,7L286.3,257.9z"/>
<polygon class="st2" points="277.7,233.5 269.2,242 253.2,257.9 250,261.2 242,269.1 233.5,277.7 222.2,266.5 242,246.7 246.7,242 
	257.9,230.8 266.5,222.2 "/>
<linearGradient id="SVGID_00000044885315022028363550000002293574221068156812_" gradientUnits="userSpaceOnUse" x1="227.8575" y1="272.1275" x2="272.1075" y2="227.8775">
	<stop  offset="4.475343e-07" style="stop-color:#D11983"/>
	<stop  offset="4.685856e-02" style="stop-color:#C91A82"/>
	<stop  offset="0.3005" style="stop-color:#9F217E"/>
	<stop  offset="0.5316" style="stop-color:#7A257A"/>
	<stop  offset="0.7325" style="stop-color:#5F2678"/>
	<stop  offset="0.8955" style="stop-color:#4E2776"/>
	<stop  offset="1" style="stop-color:#472776"/>
</linearGradient>
<polygon style="fill:url(#SVGID_00000044885315022028363550000002293574221068156812_);" points="294.2,250 286.3,257.9 
	277.8,266.5 266.5,277.7 257.9,286.3 257,287.2 250,294.2 242.9,287.2 242,286.3 222.2,266.5 213.7,257.9 212.8,257.1 205.7,250 
	222.3,233.5 233.5,222.2 242,213.7 242.9,212.8 250,205.8 257,212.8 257.9,213.7 266.5,222.2 286.3,242 287.2,243 "/>
</svg>
